<mxfile host="65bd71144e">
    <diagram id="nmCrKvcFyRjmrxQK_9ls" name="Page-1">
        <mxGraphModel dx="924" dy="626" grid="1" gridSize="10" guides="1" tooltips="1" connect="1" arrows="1" fold="1" page="1" pageScale="1" pageWidth="850" pageHeight="1100" math="0" shadow="0">
            <root>
                <mxCell id="0"/>
                <mxCell id="1" parent="0"/>
                <mxCell id="4" value="" style="edgeStyle=none;html=1;exitX=0.25;exitY=0;exitDx=0;exitDy=0;" parent="1" source="2" target="3" edge="1">
                    <mxGeometry relative="1" as="geometry"/>
                </mxCell>
                <mxCell id="6" value="" style="edgeStyle=none;html=1;" parent="1" source="2" target="5" edge="1">
                    <mxGeometry relative="1" as="geometry"/>
                </mxCell>
                <mxCell id="26" value="1" style="edgeLabel;html=1;align=center;verticalAlign=middle;resizable=0;points=[];" parent="6" vertex="1" connectable="0">
                    <mxGeometry x="-0.0153" y="1" relative="1" as="geometry">
                        <mxPoint as="offset"/>
                    </mxGeometry>
                </mxCell>
                <mxCell id="14" value="" style="edgeStyle=none;html=1;exitX=0.089;exitY=-0.02;exitDx=0;exitDy=0;exitPerimeter=0;" parent="1" source="2" target="13" edge="1">
                    <mxGeometry relative="1" as="geometry"/>
                </mxCell>
                <mxCell id="16" value="" style="edgeStyle=none;html=1;" parent="1" source="2" target="15" edge="1">
                    <mxGeometry relative="1" as="geometry"/>
                </mxCell>
                <mxCell id="17" value="" style="edgeStyle=none;html=1;" parent="1" source="2" target="15" edge="1">
                    <mxGeometry relative="1" as="geometry"/>
                </mxCell>
                <mxCell id="19" value="" style="edgeStyle=none;html=1;" parent="1" source="2" target="18" edge="1">
                    <mxGeometry relative="1" as="geometry"/>
                </mxCell>
                <mxCell id="20" value="" style="edgeStyle=none;html=1;" parent="1" source="2" target="18" edge="1">
                    <mxGeometry relative="1" as="geometry"/>
                </mxCell>
                <mxCell id="21" value="" style="edgeStyle=none;html=1;" parent="1" source="2" target="18" edge="1">
                    <mxGeometry relative="1" as="geometry"/>
                </mxCell>
                <mxCell id="23" value="" style="edgeStyle=none;html=1;exitX=0;exitY=0.5;exitDx=0;exitDy=0;" parent="1" source="2" target="22" edge="1">
                    <mxGeometry relative="1" as="geometry">
                        <mxPoint x="169.99999999999977" y="189.9999910553836" as="sourcePoint"/>
                    </mxGeometry>
                </mxCell>
                <mxCell id="30" value="" style="edgeStyle=none;html=1;fillColor=#fff2cc;gradientColor=#ffd966;strokeColor=#000000;exitX=0;exitY=1;exitDx=0;exitDy=0;" parent="1" source="2" target="29" edge="1">
                    <mxGeometry relative="1" as="geometry">
                        <mxPoint x="197" y="210" as="sourcePoint"/>
                    </mxGeometry>
                </mxCell>
                <mxCell id="33" value="" style="edgeStyle=none;html=1;entryX=1;entryY=0;entryDx=0;entryDy=0;exitX=0.167;exitY=1;exitDx=0;exitDy=0;exitPerimeter=0;" parent="1" source="2" target="34" edge="1">
                    <mxGeometry relative="1" as="geometry">
                        <mxPoint x="160" y="290" as="targetPoint"/>
                    </mxGeometry>
                </mxCell>
                <mxCell id="2" value="User" style="rounded=0;html=1;" parent="1" vertex="1">
                    <mxGeometry x="190" y="140" width="120" height="60" as="geometry"/>
                </mxCell>
                <mxCell id="3" value="User_id&#xa;(pk)" style="ellipse;html=1;rounded=0;" parent="1" vertex="1">
                    <mxGeometry x="160" y="20" width="80" height="50" as="geometry"/>
                </mxCell>
                <mxCell id="8" value="" style="edgeStyle=none;html=1;" parent="1" source="5" target="7" edge="1">
                    <mxGeometry relative="1" as="geometry"/>
                </mxCell>
                <mxCell id="27" value="n" style="edgeLabel;html=1;align=center;verticalAlign=middle;resizable=0;points=[];" parent="8" vertex="1" connectable="0">
                    <mxGeometry x="-0.1824" relative="1" as="geometry">
                        <mxPoint as="offset"/>
                    </mxGeometry>
                </mxCell>
                <mxCell id="5" value="sends" style="rhombus;html=1;rounded=0;" parent="1" vertex="1">
                    <mxGeometry x="420" y="150" width="80" height="80" as="geometry"/>
                </mxCell>
                <mxCell id="36" value="" style="edgeStyle=none;html=1;" parent="1" source="7" target="35" edge="1">
                    <mxGeometry relative="1" as="geometry"/>
                </mxCell>
                <mxCell id="38" value="" style="edgeStyle=none;html=1;" parent="1" source="7" target="37" edge="1">
                    <mxGeometry relative="1" as="geometry"/>
                </mxCell>
                <mxCell id="41" value="" style="edgeStyle=none;html=1;" parent="1" source="7" target="40" edge="1">
                    <mxGeometry relative="1" as="geometry"/>
                </mxCell>
                <mxCell id="43" value="" style="edgeStyle=none;html=1;" parent="1" source="7" target="42" edge="1">
                    <mxGeometry relative="1" as="geometry"/>
                </mxCell>
                <mxCell id="45" value="" style="edgeStyle=none;html=1;" parent="1" target="44" edge="1">
                    <mxGeometry relative="1" as="geometry">
                        <mxPoint x="680" y="196.0343674938821" as="sourcePoint"/>
                    </mxGeometry>
                </mxCell>
                <mxCell id="47" value="" style="edgeStyle=none;html=1;" parent="1" source="7" target="46" edge="1">
                    <mxGeometry relative="1" as="geometry"/>
                </mxCell>
                <mxCell id="7" value="Message" style="html=1;rounded=0;" parent="1" vertex="1">
                    <mxGeometry x="560" y="160" width="120" height="60" as="geometry"/>
                </mxCell>
                <mxCell id="12" value="" style="edgeStyle=none;html=1;entryX=0.5;entryY=1;entryDx=0;entryDy=0;exitX=0.5;exitY=0;exitDx=0;exitDy=0;" parent="1" source="11" target="9" edge="1">
                    <mxGeometry relative="1" as="geometry">
                        <mxPoint x="650" y="440" as="sourcePoint"/>
                    </mxGeometry>
                </mxCell>
                <mxCell id="63" value="1" style="edgeLabel;html=1;align=center;verticalAlign=middle;resizable=0;points=[];rounded=0;strokeColor=#2D7600;fillColor=#60a917;" parent="12" vertex="1" connectable="0">
                    <mxGeometry x="0.0421" y="-1" relative="1" as="geometry">
                        <mxPoint as="offset"/>
                    </mxGeometry>
                </mxCell>
                <mxCell id="64" value="" style="edgeLabel;html=1;align=center;verticalAlign=middle;resizable=0;points=[];rounded=0;strokeColor=#2D7600;fillColor=#60a917;" parent="12" vertex="1" connectable="0">
                    <mxGeometry x="0.0655" y="3" relative="1" as="geometry">
                        <mxPoint as="offset"/>
                    </mxGeometry>
                </mxCell>
                <mxCell id="67" value="N" style="edgeStyle=none;html=1;exitX=0.5;exitY=0;exitDx=0;exitDy=0;entryX=0.5;entryY=1;entryDx=0;entryDy=0;" parent="1" source="9" target="7" edge="1">
                    <mxGeometry relative="1" as="geometry"/>
                </mxCell>
                <mxCell id="68" value="Text" style="edgeLabel;html=1;align=center;verticalAlign=middle;resizable=0;points=[];rounded=0;strokeColor=#2D7600;fillColor=#60a917;" parent="67" vertex="1" connectable="0">
                    <mxGeometry x="0.116" relative="1" as="geometry">
                        <mxPoint as="offset"/>
                    </mxGeometry>
                </mxCell>
                <mxCell id="9" value="provides" style="rhombus;html=1;rounded=0;" parent="1" vertex="1">
                    <mxGeometry x="600" y="270" width="80" height="80" as="geometry"/>
                </mxCell>
                <mxCell id="25" value="" style="edgeStyle=none;html=1;" parent="1" source="11" target="24" edge="1">
                    <mxGeometry relative="1" as="geometry"/>
                </mxCell>
                <mxCell id="51" value="" style="edgeStyle=none;html=1;" parent="1" source="11" target="50" edge="1">
                    <mxGeometry relative="1" as="geometry"/>
                </mxCell>
                <mxCell id="53" value="" style="edgeStyle=none;html=1;" parent="1" source="11" target="52" edge="1">
                    <mxGeometry relative="1" as="geometry"/>
                </mxCell>
                <mxCell id="55" value="" style="edgeStyle=none;html=1;" parent="1" source="69" target="54" edge="1">
                    <mxGeometry relative="1" as="geometry"/>
                </mxCell>
                <mxCell id="98" value="n" style="edgeLabel;html=1;align=center;verticalAlign=middle;resizable=0;points=[];rounded=0;strokeColor=#2D7600;fillColor=#60a917;" parent="55" vertex="1" connectable="0">
                    <mxGeometry x="-0.0868" y="-1" relative="1" as="geometry">
                        <mxPoint as="offset"/>
                    </mxGeometry>
                </mxCell>
                <mxCell id="82" value="" style="edgeStyle=none;html=1;" parent="1" source="11" target="81" edge="1">
                    <mxGeometry relative="1" as="geometry"/>
                </mxCell>
                <mxCell id="11" value="Chatbot" style="html=1;rounded=0;" parent="1" vertex="1">
                    <mxGeometry x="590" y="430" width="120" height="60" as="geometry"/>
                </mxCell>
                <mxCell id="13" value="User_name" style="ellipse;html=1;rounded=0;" parent="1" vertex="1">
                    <mxGeometry x="60" y="30" width="90" height="50" as="geometry"/>
                </mxCell>
                <mxCell id="15" value="user_age" style="ellipse;html=1;rounded=0;" parent="1" vertex="1">
                    <mxGeometry x="20" y="82" width="80" height="50" as="geometry"/>
                </mxCell>
                <mxCell id="18" value="User_location" style="ellipse;html=1;rounded=0;" parent="1" vertex="1">
                    <mxGeometry x="13" y="140" width="80" height="50" as="geometry"/>
                </mxCell>
                <mxCell id="22" value="User_email" style="ellipse;html=1;rounded=0;" parent="1" vertex="1">
                    <mxGeometry x="20" y="195.26" width="80" height="54.74" as="geometry"/>
                </mxCell>
                <mxCell id="24" value="Bot_id&#xa;(pk)" style="ellipse;html=1;rounded=0;" parent="1" vertex="1">
                    <mxGeometry x="720" y="514" width="80" height="50" as="geometry"/>
                </mxCell>
                <mxCell id="29" value="Gender" style="ellipse;html=1;rounded=0;" parent="1" vertex="1">
                    <mxGeometry x="40" y="255.26" width="80" height="44.74" as="geometry"/>
                </mxCell>
                <mxCell id="34" value="Chat_history_id&#xa;(fk)" style="ellipse;html=1;rounded=0;" parent="1" vertex="1">
                    <mxGeometry x="130" y="255.26" width="93" height="44.74" as="geometry"/>
                </mxCell>
                <mxCell id="35" value="msg_id&lt;div&gt;(pk)&lt;/div&gt;" style="ellipse;html=1;rounded=0;" parent="1" vertex="1">
                    <mxGeometry x="620" y="30" width="80" height="40" as="geometry"/>
                </mxCell>
                <mxCell id="37" value="chat_history_id&lt;div&gt;(fk)&lt;/div&gt;" style="ellipse;html=1;rounded=0;" parent="1" vertex="1">
                    <mxGeometry x="710" y="32" width="90" height="50" as="geometry"/>
                </mxCell>
                <mxCell id="40" value="bot_id&lt;div&gt;(fk)&lt;/div&gt;" style="ellipse;html=1;rounded=0;align=center;verticalAlign=middle;" parent="1" vertex="1">
                    <mxGeometry x="740" y="98" width="90" height="43" as="geometry"/>
                </mxCell>
                <mxCell id="42" value="msg_content" style="ellipse;html=1;rounded=0;" parent="1" vertex="1">
                    <mxGeometry x="760" y="155.26" width="80" height="40" as="geometry"/>
                </mxCell>
                <mxCell id="44" value="Sentiment_score" style="ellipse;html=1;rounded=0;align=center;verticalAlign=middle;" parent="1" vertex="1">
                    <mxGeometry x="720" y="220" width="130" height="42" as="geometry"/>
                </mxCell>
                <mxCell id="46" value="User_id" style="ellipse;html=1;rounded=0;align=center;verticalAlign=middle;" parent="1" vertex="1">
                    <mxGeometry x="710" y="270" width="80" height="40" as="geometry"/>
                </mxCell>
                <mxCell id="50" value="Version" style="ellipse;html=1;rounded=0;" parent="1" vertex="1">
                    <mxGeometry x="640" y="550" width="80" height="50" as="geometry"/>
                </mxCell>
                <mxCell id="52" value="Model" style="ellipse;html=1;rounded=0;" parent="1" vertex="1">
                    <mxGeometry x="750" y="453.75" width="80" height="40" as="geometry"/>
                </mxCell>
                <mxCell id="57" value="" style="edgeStyle=none;html=1;exitX=0.874;exitY=1.03;exitDx=0;exitDy=0;exitPerimeter=0;" parent="1" source="54" target="56" edge="1">
                    <mxGeometry relative="1" as="geometry">
                        <mxPoint x="309.99796915430534" y="653.75" as="sourcePoint"/>
                    </mxGeometry>
                </mxCell>
                <mxCell id="59" value="" style="edgeStyle=none;html=1;" parent="1" source="54" target="58" edge="1">
                    <mxGeometry relative="1" as="geometry"/>
                </mxCell>
                <mxCell id="61" value="" style="edgeStyle=none;html=1;" parent="1" source="54" target="60" edge="1">
                    <mxGeometry relative="1" as="geometry"/>
                </mxCell>
                <mxCell id="73" value="" style="edgeStyle=none;html=1;entryX=0.975;entryY=0.707;entryDx=0;entryDy=0;entryPerimeter=0;" parent="1" source="54" target="72" edge="1">
                    <mxGeometry relative="1" as="geometry">
                        <mxPoint x="214.97842540774218" y="599.9998196776125" as="targetPoint"/>
                    </mxGeometry>
                </mxCell>
                <mxCell id="75" value="" style="edgeStyle=none;html=1;" parent="1" source="79" target="74" edge="1">
                    <mxGeometry relative="1" as="geometry"/>
                </mxCell>
                <mxCell id="54" value="Chat_History" style="html=1;rounded=0;" parent="1" vertex="1">
                    <mxGeometry x="270" y="610" width="120" height="60" as="geometry"/>
                </mxCell>
                <mxCell id="56" value="Chat_history_id&lt;div&gt;(pk)&lt;/div&gt;" style="ellipse;html=1;rounded=0;align=center;verticalAlign=middle;" parent="1" vertex="1">
                    <mxGeometry x="390" y="723.75" width="100" height="46.25" as="geometry"/>
                </mxCell>
                <mxCell id="58" value="User_id(fk)" style="ellipse;html=1;rounded=0;align=center;verticalAlign=middle;" parent="1" vertex="1">
                    <mxGeometry x="290" y="730" width="80" height="50" as="geometry"/>
                </mxCell>
                <mxCell id="60" value="Last_active" style="ellipse;html=1;rounded=0;" parent="1" vertex="1">
                    <mxGeometry x="190" y="723.75" width="80" height="44" as="geometry"/>
                </mxCell>
                <mxCell id="71" value="" style="edgeStyle=none;html=1;" parent="1" source="11" target="69" edge="1">
                    <mxGeometry relative="1" as="geometry">
                        <mxPoint x="560" y="492" as="sourcePoint"/>
                        <mxPoint x="320" y="498" as="targetPoint"/>
                    </mxGeometry>
                </mxCell>
                <mxCell id="97" value="1" style="edgeLabel;html=1;align=center;verticalAlign=middle;resizable=0;points=[];rounded=0;strokeColor=#2D7600;fillColor=#60a917;" parent="71" vertex="1" connectable="0">
                    <mxGeometry x="-0.2535" y="-2" relative="1" as="geometry">
                        <mxPoint y="1" as="offset"/>
                    </mxGeometry>
                </mxCell>
                <mxCell id="69" value="stores" style="rhombus;html=1;rounded=0;align=center;verticalAlign=middle;" parent="1" vertex="1">
                    <mxGeometry x="460" y="493.75" width="80" height="80" as="geometry"/>
                </mxCell>
                <mxCell id="72" value="Conv_Summary" style="ellipse;html=1;rounded=0;align=center;verticalAlign=middle;" parent="1" vertex="1">
                    <mxGeometry x="93" y="610" width="120" height="40" as="geometry"/>
                </mxCell>
                <mxCell id="77" value="" style="edgeStyle=none;html=1;" parent="1" source="74" target="76" edge="1">
                    <mxGeometry relative="1" as="geometry"/>
                </mxCell>
                <mxCell id="95" value="1" style="edgeLabel;html=1;align=center;verticalAlign=middle;resizable=0;points=[];rounded=0;strokeColor=#2D7600;fillColor=#60a917;" parent="77" vertex="1" connectable="0">
                    <mxGeometry x="0.0516" y="-3" relative="1" as="geometry">
                        <mxPoint as="offset"/>
                    </mxGeometry>
                </mxCell>
                <mxCell id="85" value="" style="edgeStyle=none;html=1;" parent="1" source="74" target="84" edge="1">
                    <mxGeometry relative="1" as="geometry"/>
                </mxCell>
                <mxCell id="87" value="" style="edgeStyle=none;html=1;" parent="1" source="74" target="86" edge="1">
                    <mxGeometry relative="1" as="geometry"/>
                </mxCell>
                <mxCell id="89" value="" style="edgeStyle=none;html=1;" parent="1" source="74" target="88" edge="1">
                    <mxGeometry relative="1" as="geometry"/>
                </mxCell>
                <mxCell id="91" value="" style="edgeStyle=none;html=1;" parent="1" source="74" target="90" edge="1">
                    <mxGeometry relative="1" as="geometry"/>
                </mxCell>
                <mxCell id="93" value="" style="edgeStyle=none;html=1;" parent="1" source="74" target="92" edge="1">
                    <mxGeometry relative="1" as="geometry"/>
                </mxCell>
                <mxCell id="74" value="Admin" style="html=1;rounded=0;" parent="1" vertex="1">
                    <mxGeometry x="200" y="440" width="120" height="60" as="geometry"/>
                </mxCell>
                <mxCell id="78" value="" style="edgeStyle=none;html=1;entryX=0.333;entryY=0.982;entryDx=0;entryDy=0;entryPerimeter=0;" parent="1" source="76" target="2" edge="1">
                    <mxGeometry relative="1" as="geometry"/>
                </mxCell>
                <mxCell id="96" value="n" style="edgeLabel;html=1;align=center;verticalAlign=middle;resizable=0;points=[];rounded=0;strokeColor=#2D7600;fillColor=#60a917;" parent="78" vertex="1" connectable="0">
                    <mxGeometry x="0.0513" y="2" relative="1" as="geometry">
                        <mxPoint as="offset"/>
                    </mxGeometry>
                </mxCell>
                <mxCell id="76" value="Manages" style="rhombus;html=1;rounded=0;" parent="1" vertex="1">
                    <mxGeometry x="280" y="290" width="80" height="80" as="geometry"/>
                </mxCell>
                <mxCell id="80" value="" style="edgeStyle=none;html=1;exitX=0.379;exitY=0.894;exitDx=0;exitDy=0;entryX=0.5;entryY=0;entryDx=0;entryDy=0;exitPerimeter=0;" parent="1" source="79" target="54" edge="1">
                    <mxGeometry relative="1" as="geometry">
                        <mxPoint x="324" y="624" as="sourcePoint"/>
                        <mxPoint x="460" y="480" as="targetPoint"/>
                    </mxGeometry>
                </mxCell>
                <mxCell id="100" value="n" style="edgeLabel;html=1;align=center;verticalAlign=middle;resizable=0;points=[];rounded=0;strokeColor=#2D7600;fillColor=#60a917;" parent="80" vertex="1" connectable="0">
                    <mxGeometry x="0.0336" y="-3" relative="1" as="geometry">
                        <mxPoint as="offset"/>
                    </mxGeometry>
                </mxCell>
                <mxCell id="79" value="Update" style="rhombus;html=1;rounded=0;" parent="1" vertex="1">
                    <mxGeometry x="425" y="360" width="80" height="80" as="geometry"/>
                </mxCell>
                <mxCell id="81" value="msg_id&lt;div&gt;(fk)&lt;/div&gt;" style="ellipse;html=1;rounded=0;align=center;verticalAlign=middle;" parent="1" vertex="1">
                    <mxGeometry x="750" y="390" width="80" height="40" as="geometry"/>
                </mxCell>
                <mxCell id="83" value="" style="edgeStyle=none;html=1;exitX=0.75;exitY=1;exitDx=0;exitDy=0;" parent="1" source="2" target="79" edge="1">
                    <mxGeometry relative="1" as="geometry">
                        <mxPoint x="400" y="280" as="targetPoint"/>
                    </mxGeometry>
                </mxCell>
                <mxCell id="99" value="1" style="edgeLabel;html=1;align=center;verticalAlign=middle;resizable=0;points=[];rounded=0;strokeColor=#2D7600;fillColor=#60a917;" parent="83" vertex="1" connectable="0">
                    <mxGeometry x="-0.0612" y="-2" relative="1" as="geometry">
                        <mxPoint as="offset"/>
                    </mxGeometry>
                </mxCell>
                <mxCell id="84" value="Admin_id&lt;div&gt;(pk)&lt;/div&gt;" style="ellipse;html=1;rounded=0;" parent="1" vertex="1">
                    <mxGeometry x="10" y="319" width="80" height="40" as="geometry"/>
                </mxCell>
                <mxCell id="86" value="name" style="ellipse;html=1;rounded=0;align=center;verticalAlign=middle;" parent="1" vertex="1">
                    <mxGeometry y="369" width="80" height="40" as="geometry"/>
                </mxCell>
                <mxCell id="88" value="email" style="ellipse;html=1;rounded=0;align=center;verticalAlign=middle;" parent="1" vertex="1">
                    <mxGeometry y="419" width="80" height="40" as="geometry"/>
                </mxCell>
                <mxCell id="90" value="password" style="ellipse;html=1;rounded=0;align=center;verticalAlign=middle;" parent="1" vertex="1">
                    <mxGeometry x="20" y="474" width="80" height="40" as="geometry"/>
                </mxCell>
                <mxCell id="92" value="role" style="ellipse;html=1;rounded=0;align=center;verticalAlign=middle;" parent="1" vertex="1">
                    <mxGeometry x="80" y="514" width="80" height="36" as="geometry"/>
                </mxCell>
            </root>
        </mxGraphModel>
    </diagram>
</mxfile>